HIERARCHY
ROOT Hips
{
  OFFSET 2.197 24.456 -277.586
  CHANNELS 6 Xposition Yposition Zposition Zrotation Xrotation Yrotation
  JOINT LeftUpLeg
  {
    OFFSET 7.670 -8.044 2.510
    CHANNELS 6 Xposition Yposition Zposition Zrotation Xrotation Yrotation
    JOINT LeftLeg
    {
      OFFSET -0.000 -49.745 0.000
      CHANNELS 6 Xposition Yposition Zposition Zrotation Xrotation Yrotation
      JOINT LeftFoot
      {
        OFFSET 0.000 -41.797 -0.000
        CHANNELS 6 Xposition Yposition Zposition Zrotation Xrotation Yrotation
        End Site
        {
          OFFSET 0.000 -9.441 5.451
        }
      }
    }
  }
  JOINT RightUpLeg
  {
    OFFSET -7.739 -7.522 1.715
    CHANNELS 6 Xposition Yposition Zposition Zrotation Xrotation Yrotation
    JOINT RightLeg
    {
      OFFSET 0.000 -49.455 0.000
      CHANNELS 6 Xposition Yposition Zposition Zrotation Xrotation Yrotation
      JOINT RightFoot
      {
        OFFSET 0.000 -41.302 -0.000
        CHANNELS 6 Xposition Yposition Zposition Zrotation Xrotation Yrotation
        End Site
        {
          OFFSET 0.000 -9.936 5.736
        }
      }
    }
  }
  JOINT Spine
  {
    OFFSET 0.000 5.833 -5.833
    CHANNELS 6 Xposition Yposition Zposition Zrotation Xrotation Yrotation
    JOINT LeftShoulder
    {
      OFFSET -0.000 37.329 0.000
      CHANNELS 6 Xposition Yposition Zposition Zrotation Xrotation Yrotation
      JOINT LeftArm
      {
        OFFSET 23.041 0.000 -0.000
        CHANNELS 6 Xposition Yposition Zposition Zrotation Xrotation Yrotation
        JOINT LeftForeArm
        {
          OFFSET 24.511 0.000 0.000
          CHANNELS 6 Xposition Yposition Zposition Zrotation Xrotation Yrotation
          JOINT LeftHand
          {
            OFFSET 28.542 0.000 -0.000
            CHANNELS 6 Xposition Yposition Zposition Zrotation Xrotation Yrotation
            JOINT LeftHandThumb1
            {
            OFFSET 4.970 -0.620 3.390
            CHANNELS 6 Xposition Yposition Zposition Zrotation Xrotation Yrotation
              JOINT LeftHandThumb2
              {
              OFFSET 2.150 -0.000 0.000
              CHANNELS 6 Xposition Yposition Zposition Zrotation Xrotation Yrotation
                JOINT LeftHandThumb3
                {
                OFFSET 2.200 -0.000 0.000
                CHANNELS 6 Xposition Yposition Zposition Zrotation Xrotation Yrotation
                  JOINT LeftHandThumb4
                  {
                  OFFSET 1.700 -0.000 0.000
                  CHANNELS 6 Xposition Yposition Zposition Zrotation Xrotation Yrotation
                  }
                }
              }
            }
            JOINT LeftHandIndex1
            {
            OFFSET 8.730 0.680 2.070
            CHANNELS 6 Xposition Yposition Zposition Zrotation Xrotation Yrotation
              JOINT LeftHandIndex2
              {
              OFFSET 2.670 -0.000 0.000
              CHANNELS 6 Xposition Yposition Zposition Zrotation Xrotation Yrotation
                JOINT LeftHandIndex3
                {
                OFFSET 2.130 -0.000 0.000
                CHANNELS 6 Xposition Yposition Zposition Zrotation Xrotation Yrotation
                  JOINT LeftHandIndex4
                  {
                  OFFSET 1.800 -0.000 0.000
                  CHANNELS 6 Xposition Yposition Zposition Zrotation Xrotation Yrotation
                  }
                }
              }
            }
            JOINT LeftHandMiddle1
            {
            OFFSET 9.220 0.670 0.550
            CHANNELS 6 Xposition Yposition Zposition Zrotation Xrotation Yrotation
              JOINT LeftHandMiddle2
              {
              OFFSET 2.660 -0.000 0.000
              CHANNELS 6 Xposition Yposition Zposition Zrotation Xrotation Yrotation
                JOINT LeftHandMiddle3
                {
                OFFSET 2.280 -0.000 0.000
                CHANNELS 6 Xposition Yposition Zposition Zrotation Xrotation Yrotation
                  JOINT LeftHandMiddle4
                  {
                  OFFSET 1.500 -0.000 0.000
                  CHANNELS 6 Xposition Yposition Zposition Zrotation Xrotation Yrotation
                  }
                }
              }
            }
            JOINT LeftHandRing1
            {
            OFFSET 9.250 0.670 -1.130
            CHANNELS 6 Xposition Yposition Zposition Zrotation Xrotation Yrotation
              JOINT LeftHandRing2
              {
              OFFSET 2.470 -0.000 0.000
              CHANNELS 6 Xposition Yposition Zposition Zrotation Xrotation Yrotation
                JOINT LeftHandRing3
                {
                OFFSET 2.210 -0.000 0.000
                CHANNELS 6 Xposition Yposition Zposition Zrotation Xrotation Yrotation
                  JOINT LeftHandRing4
                  {
                  OFFSET 1.800 -0.000 0.000
                  CHANNELS 6 Xposition Yposition Zposition Zrotation Xrotation Yrotation
                  }
                }
              }
            }
            JOINT LeftHandPinky1
            {
            OFFSET 9.350 0.660 -2.720
            CHANNELS 6 Xposition Yposition Zposition Zrotation Xrotation Yrotation
              JOINT LeftHandPinky2
              {
              OFFSET 1.630 -0.000 0.000
              CHANNELS 6 Xposition Yposition Zposition Zrotation Xrotation Yrotation
                JOINT LeftHandPinky3
                {
                OFFSET 1.710 -0.000 0.000
                CHANNELS 6 Xposition Yposition Zposition Zrotation Xrotation Yrotation
                  JOINT LeftHandPinky4
                  {
                  OFFSET 1.800 -0.000 0.000
                  CHANNELS 6 Xposition Yposition Zposition Zrotation Xrotation Yrotation
                  }
                }
              }
            }
          }
        }
      }
    }
    JOINT RightShoulder
    {
      OFFSET -0.000 37.329 0.000
      CHANNELS 6 Xposition Yposition Zposition Zrotation Xrotation Yrotation
      JOINT RightArm
      {
        OFFSET -21.686 0.000 -0.000
        CHANNELS 6 Xposition Yposition Zposition Zrotation Xrotation Yrotation
        JOINT RightForeArm
        {
          OFFSET -26.456 0.000 0.000
          CHANNELS 6 Xposition Yposition Zposition Zrotation Xrotation Yrotation
          JOINT RightHand
          {
            OFFSET -27.199 0.000 -0.000
            CHANNELS 6 Xposition Yposition Zposition Zrotation Xrotation Yrotation
            JOINT RightHandThumb1
            {
            OFFSET -4.970 -0.620 3.390
            CHANNELS 6 Xposition Yposition Zposition Zrotation Xrotation Yrotation
              JOINT RightHandThumb2
              {
              OFFSET -2.150 0.000 0.000
              CHANNELS 6 Xposition Yposition Zposition Zrotation Xrotation Yrotation
                JOINT RightHandThumb3
                {
                OFFSET -2.200 0.000 0.000
                CHANNELS 6 Xposition Yposition Zposition Zrotation Xrotation Yrotation
                  JOINT RightHandThumb4
                  {
                  OFFSET -1.700 0.000 0.000
                  CHANNELS 6 Xposition Yposition Zposition Zrotation Xrotation Yrotation
                  }
                }
              }
            }
            JOINT RightHandIndex1
            {
            OFFSET -8.730 0.680 2.070
            CHANNELS 6 Xposition Yposition Zposition Zrotation Xrotation Yrotation
              JOINT RightHandIndex2
              {
              OFFSET -2.670 0.000 0.000
              CHANNELS 6 Xposition Yposition Zposition Zrotation Xrotation Yrotation
                JOINT RightHandIndex3
                {
                OFFSET -2.130 0.000 0.000
                CHANNELS 6 Xposition Yposition Zposition Zrotation Xrotation Yrotation
                  JOINT RightHandIndex4
                  {
                  OFFSET -1.800 0.000 0.000
                  CHANNELS 6 Xposition Yposition Zposition Zrotation Xrotation Yrotation
                  }
                }
              }
            }
            JOINT RightHandMiddle1
            {
            OFFSET -9.220 0.670 0.550
            CHANNELS 6 Xposition Yposition Zposition Zrotation Xrotation Yrotation
              JOINT RightHandMiddle2
              {
              OFFSET -2.660 0.000 0.000
              CHANNELS 6 Xposition Yposition Zposition Zrotation Xrotation Yrotation
                JOINT RightHandMiddle3
                {
                OFFSET -2.280 0.000 0.000
                CHANNELS 6 Xposition Yposition Zposition Zrotation Xrotation Yrotation
                  JOINT RightHandMiddle4
                  {
                  OFFSET -1.500 0.000 0.000
                  CHANNELS 6 Xposition Yposition Zposition Zrotation Xrotation Yrotation
                  }
                }
              }
            }
            JOINT RightHandRing1
            {
            OFFSET -9.250 0.670 -1.130
            CHANNELS 6 Xposition Yposition Zposition Zrotation Xrotation Yrotation
              JOINT RightHandRing2
              {
              OFFSET -2.470 0.000 0.000
              CHANNELS 6 Xposition Yposition Zposition Zrotation Xrotation Yrotation
                JOINT RightHandRing3
                {
                OFFSET -2.210 0.000 0.000
                CHANNELS 6 Xposition Yposition Zposition Zrotation Xrotation Yrotation
                  JOINT RightHandRing4
                  {
                  OFFSET -1.800 0.000 0.000
                  CHANNELS 6 Xposition Yposition Zposition Zrotation Xrotation Yrotation
                  }
                }
              }
            }
            JOINT RightHandPinky1
            {
            OFFSET -9.350 0.660 -2.720
            CHANNELS 6 Xposition Yposition Zposition Zrotation Xrotation Yrotation
              JOINT RightHandPinky2
              {
              OFFSET -1.630 0.000 0.000
              CHANNELS 6 Xposition Yposition Zposition Zrotation Xrotation Yrotation
                JOINT RightHandPinky3
                {
                OFFSET -1.710 0.000 0.000
                CHANNELS 6 Xposition Yposition Zposition Zrotation Xrotation Yrotation
                  JOINT RightHandPinky4
                  {
                  OFFSET -1.800 0.000 0.000
                  CHANNELS 6 Xposition Yposition Zposition Zrotation Xrotation Yrotation
                  }
                }
              }
            }
          }
        }
      }
    }
    JOINT Neck
    {
      OFFSET -0.000 37.329 0.000
      CHANNELS 6 Xposition Yposition Zposition Zrotation Xrotation Yrotation
      JOINT Head
      {
        OFFSET -0.000 16.849 -0.000
        CHANNELS 6 Xposition Yposition Zposition Zrotation Xrotation Yrotation
        End Site
        {
          OFFSET -0.000 0.067 -0.000
        }
      }
    }
  }
}
MOTION
Frames:	6
Frame Time:	0.0333333
-35.0479 24.2721 -309.514 1.85807 -0.391343 8.55696 7.65042 -8.27901 1.71928 0.00423704 6.41228 0.344334 1.49012e-06 -52.1977 0 -7.5854 -3.52341 -0.468905 1.19209e-05 -37.8329 -2.38419e-05 2.56155 -16.4758 2.13205 -7.82166 -7.42759 1.90861 -5.08823 3.77322 0.826705 0 -49.957 2.38419e-05 6.64876 1.50343 -0.17523 -3.09665e-06 -40.2882 -4.76837e-05 -5.33676 -11.0059 -4.06648 -1.49012e-06 6.28417 -6.28419 -0.11003 -3.69254 -0.0572833 -7.45058e-06 37.3278 2.38419e-05 -32.7294 1.53679e-05 -4.57442 22.5931 -5.96046e-06 2.38419e-05 12.1503 -43.7781 -3.54099 23.8124 4.76837e-05 -7.15256e-05 -3.72913e-05 -1.02453e-05 -69.5716 31.6232 -4.76837e-05 5.96046e-06 7.27733 -0.0370806 -11.8317 0.0062 0.0497 0.0339 0 0 0 0 0.0215 0 0 0 0 0 0.022 0 0 0 0 0 0.017 0 0 0 0 -0.0068 0.0873 0.0207 0 0 0 0 0.0267 0 0 0 0 0 0.0213 0 0 0 0 0 0.018 0 0 0 0 -0.0067 0.0922 0.0055 0 0 0 0 0.0266 0 0 0 0 0 0.0228 0 0 0 0 0 0.015 0 0 0 0 -0.0067 0.0925 -0.0113 0 0 0 0 0.0247 0 0 0 0 0 0.0221 0 0 0 0 0 0.018 0 0 0 0 -0.0066 0.0935 -0.0272 0 0 0 0 0.0163 0 0 0 0 0 0.0171 0 0 0 0 0 0.018 0 0 0 0 -7.45058e-06 37.3278 2.38419e-05 36.0838 -2.98821e-06 4.96773 -20.8082 0 0 23.4632 21.6621 16.0488 -28.7344 -5.96046e-06 4.76837e-05 4.81335e-05 5.12263e-06 85.9159 -27.1409 2.38419e-05 0 -5.90952 -0.0858506 13.4556 -0.0062 0.0497 0.0339 0 0 0 0 0.0215 0 0 0 0 0 0.022 0 0 0 0 0 0.017 0 0 0 0 0.0068 0.0873 0.0207 0 0 0 0 0.0267 0 0 0 0 0 0.0213 0 0 0 0 0 0.018 0 0 0 0 0.0067 0.0922 0.0055 0 0 0 0 0.0266 0 0 0 0 0 0.0228 0 0 0 0 0 0.015 0 0 0 0 0.0067 0.0925 -0.0113 0 0 0 0 0.0247 0 0 0 0 0 0.0221 0 0 0 0 0 0.018 0 0 0 0 0.0066 0.0935 -0.0272 0 0 0 0 0.0163 0 0 0 0 0 0.0171 0 0 0 0 0 0.018 0 0 0 0 -7.45058e-06 37.3278 2.38419e-05 -1.53322 13.1082 0.347796 3.72529e-06 18.72 0 1.01386e-05 -1.02453e-05 0 
-35.0479 24.2721 -309.514 1.85807 -0.391343 8.55696 7.65042 -8.27901 1.71928 0.00423704 6.41228 0.344334 1.49012e-06 -52.1977 0 -7.5854 -3.52341 -0.468905 1.19209e-05 -37.8329 -2.38419e-05 2.56155 -16.4758 2.13205 -7.82166 -7.42759 1.90861 -5.08823 3.77322 0.826705 0 -49.957 2.38419e-05 6.64876 1.50343 -0.17523 -3.09665e-06 -40.2882 -4.76837e-05 -5.33676 -11.0059 -4.06648 -1.49012e-06 6.28417 -6.28419 -0.11003 -3.69254 -0.0572833 -7.45058e-06 37.3278 2.38419e-05 -32.7294 1.53679e-05 -4.57442 22.5931 -5.96046e-06 2.38419e-05 12.1503 -43.7781 -3.54099 23.8124 4.76837e-05 -7.15256e-05 -3.72913e-05 -1.02453e-05 -69.5716 31.6232 -4.76837e-05 5.96046e-06 7.27733 -0.0370806 -11.8317 0.0062 0.0497 0.0339 0 0 0 0 0.0215 0 0 0 0 0 0.022 0 0 0 0 0 0.017 0 0 0 0 -0.0068 0.0873 0.0207 0 0 0 0 0.0267 0 0 0 0 0 0.0213 0 0 0 0 0 0.018 0 0 0 0 -0.0067 0.0922 0.0055 0 0 0 0 0.0266 0 0 0 0 0 0.0228 0 0 0 0 0 0.015 0 0 0 0 -0.0067 0.0925 -0.0113 0 0 0 0 0.0247 0 0 0 0 0 0.0221 0 0 0 0 0 0.018 0 0 0 0 -0.0066 0.0935 -0.0272 0 0 0 0 0.0163 0 0 0 0 0 0.0171 0 0 0 0 0 0.018 0 0 0 0 -7.45058e-06 37.3278 2.38419e-05 36.0838 -2.98821e-06 4.96773 -20.8082 0 0 23.4632 21.6621 16.0488 -28.7344 -5.96046e-06 4.76837e-05 4.81335e-05 5.12263e-06 85.9159 -27.1409 2.38419e-05 0 -5.90952 -0.0858506 13.4556 -0.0062 0.0497 0.0339 0 0 0 0 0.0215 0 0 0 0 0 0.022 0 0 0 0 0 0.017 0 0 0 0 0.0068 0.0873 0.0207 0 0 0 0 0.0267 0 0 0 0 0 0.0213 0 0 0 0 0 0.018 0 0 0 0 0.0067 0.0922 0.0055 0 0 0 0 0.0266 0 0 0 0 0 0.0228 0 0 0 0 0 0.015 0 0 0 0 0.0067 0.0925 -0.0113 0 0 0 0 0.0247 0 0 0 0 0 0.0221 0 0 0 0 0 0.018 0 0 0 0 0.0066 0.0935 -0.0272 0 0 0 0 0.0163 0 0 0 0 0 0.0171 0 0 0 0 0 0.018 0 0 0 0 -7.45058e-06 37.3278 2.38419e-05 -1.53322 13.1082 0.347796 3.72529e-06 18.72 0 1.01386e-05 -1.02453e-05 0 
-35.0539 24.2524 -309.469 1.87376 -0.432078 8.52936 7.65754 -8.28065 1.71001 -0.00367447 6.48356 0.491989 0 -52.1701 2.38419e-05 -7.56628 -3.54029 -0.469946 2.08616e-05 -37.9455 2.38419e-05 2.45307 -16.5214 2.04631 -7.82837 -7.43382 1.93996 -5.08012 3.87071 0.979705 2.98023e-06 -49.9192 0 6.64498 1.43484 -0.16714 -1.15484e-05 -40.4182 2.38419e-05 -5.29663 -11.2264 -4.05161 -5.96046e-06 6.2885 -6.28848 -0.102065 -3.69337 -0.0813047 1.63913e-05 37.3278 0 -32.7126 1.28066e-05 -4.54441 22.5968 -1.19209e-05 4.76837e-05 12.002 -43.9371 -3.61479 23.8107 -2.38419e-05 -1.19209e-05 -6.12883e-06 6.83019e-06 -69.607 31.5785 -2.38419e-05 0 7.13841 -0.0307591 -11.716 0.0062 0.0497 0.0339 0 0 0 0 0.0215 0 0 0 0 0 0.022 0 0 0 0 0 0.017 0 0 0 0 -0.0068 0.0873 0.0207 0 0 0 0 0.0267 0 0 0 0 0 0.0213 0 0 0 0 0 0.018 0 0 0 0 -0.0067 0.0922 0.0055 0 0 0 0 0.0266 0 0 0 0 0 0.0228 0 0 0 0 0 0.015 0 0 0 0 -0.0067 0.0925 -0.0113 0 0 0 0 0.0247 0 0 0 0 0 0.0221 0 0 0 0 0 0.018 0 0 0 0 -0.0066 0.0935 -0.0272 0 0 0 0 0.0163 0 0 0 0 0 0.0171 0 0 0 0 0 0.018 0 0 0 0 1.63913e-05 37.3278 0 36.0482 -3.9487e-06 4.94221 -20.7819 1.19209e-05 2.38419e-05 23.5649 21.6407 16.0016 -28.6957 -3.57628e-05 -4.76837e-05 -0.00011605 1.02453e-05 85.7946 -27.3283 1.78814e-05 -3.57628e-05 -6.31873 -0.0837032 13.9135 -0.0062 0.0497 0.0339 0 0 0 0 0.0215 0 0 0 0 0 0.022 0 0 0 0 0 0.017 0 0 0 0 0.0068 0.0873 0.0207 0 0 0 0 0.0267 0 0 0 0 0 0.0213 0 0 0 0 0 0.018 0 0 0 0 0.0067 0.0922 0.0055 0 0 0 0 0.0266 0 0 0 0 0 0.0228 0 0 0 0 0 0.015 0 0 0 0 0.0067 0.0925 -0.0113 0 0 0 0 0.0247 0 0 0 0 0 0.0221 0 0 0 0 0 0.018 0 0 0 0 0.0066 0.0935 -0.0272 0 0 0 0 0.0163 0 0 0 0 0 0.0171 0 0 0 0 0 0.018 0 0 0 0 1.63913e-05 37.3278 0 -1.55779 12.9821 0.350036 -1.2666e-05 18.7365 2.38419e-05 1.00318e-05 -1.02453e-05 -8.53774e-07 
-35.0663 24.2289 -309.4 1.89533 -0.49681 8.43429 7.65475 -8.2696 1.70984 -0.00266238 6.61901 0.631114 1.04308e-05 -52.1555 -2.38419e-05 -7.5607 -3.64184 -0.483054 -2.98023e-06 -38.1475 0 2.23758 -16.696 1.87605 -7.83122 -7.43902 1.9779 -5.04223 4.00287 1.12599 -5.96046e-06 -49.9357 -2.38419e-05 6.59703 1.31305 -0.151847 8.9407e-06 -40.5969 -4.76837e-05 -5.31163 -11.7157 -4.09724 -8.9407e-06 6.29471 -6.29473 -0.0833368 -3.69398 -0.124557 7.45058e-07 37.3278 -2.38419e-05 -32.7229 1.53679e-05 -4.46666 22.5856 -2.38419e-05 -4.76837e-05 11.8218 -44.2326 -3.76721 23.8108 -2.38419e-05 1.19209e-05 2.80953e-05 6.83019e-06 -69.5528 31.4786 4.76837e-05 5.96046e-06 6.81873 -0.0210442 -11.5208 0.0062 0.0497 0.0339 0 0 0 0 0.0215 0 0 0 0 0 0.022 0 0 0 0 0 0.017 0 0 0 0 -0.0068 0.0873 0.0207 0 0 0 0 0.0267 0 0 0 0 0 0.0213 0 0 0 0 0 0.018 0 0 0 0 -0.0067 0.0922 0.0055 0 0 0 0 0.0266 0 0 0 0 0 0.0228 0 0 0 0 0 0.015 0 0 0 0 -0.0067 0.0925 -0.0113 0 0 0 0 0.0247 0 0 0 0 0 0.0221 0 0 0 0 0 0.018 0 0 0 0 -0.0066 0.0935 -0.0272 0 0 0 0 0.0163 0 0 0 0 0 0.0171 0 0 0 0 0 0.018 0 0 0 0 7.45058e-07 37.3278 -2.38419e-05 35.9648 -1.92099e-06 4.86384 -20.7452 5.96046e-06 -2.38419e-05 23.5676 21.7741 16.0515 -28.5871 5.96046e-06 0 -0.000218528 2.04906e-05 85.5348 -27.7235 5.96046e-06 3.57628e-05 -7.31494 -0.0873327 15.0894 -0.0062 0.0497 0.0339 0 0 0 0 0.0215 0 0 0 0 0 0.022 0 0 0 0 0 0.017 0 0 0 0 0.0068 0.0873 0.0207 0 0 0 0 0.0267 0 0 0 0 0 0.0213 0 0 0 0 0 0.018 0 0 0 0 0.0067 0.0922 0.0055 0 0 0 0 0.0266 0 0 0 0 0 0.0228 0 0 0 0 0 0.015 0 0 0 0 0.0067 0.0925 -0.0113 0 0 0 0 0.0247 0 0 0 0 0 0.0221 0 0 0 0 0 0.018 0 0 0 0 0.0066 0.0935 -0.0272 0 0 0 0 0.0163 0 0 0 0 0 0.0171 0 0 0 0 0 0.018 0 0 0 0 7.45058e-07 37.3278 -2.38419e-05 -1.55127 12.606 0.338637 1.2666e-05 18.7681 2.38419e-05 1.02453e-05 -7.68396e-06 0 
-35.0754 24.2096 -309.361 1.91044 -0.509832 8.38955 7.66106 -8.27848 1.69406 -0.0159075 6.65517 0.833865 -1.19209e-05 -52.1292 2.38419e-05 -7.56354 -3.70435 -0.491507 0 -38.2946 7.15256e-05 2.11681 -16.8252 1.78068 -7.84113 -7.44394 2.01809 -5.02457 4.0707 1.33132 -1.2666e-05 -49.9118 0 6.56998 1.21369 -0.139773 -1.13621e-05 -40.7021 2.38419e-05 -5.34214 -11.9701 -4.13893 -8.19564e-06 6.2986 -6.29854 -0.0670603 -3.70003 -0.151339 1.49012e-06 37.3278 -2.38419e-05 -32.7078 1.19528e-05 -4.40512 22.588 1.19209e-05 0 11.7259 -44.31 -3.69133 23.8587 2.38419e-05 3.57628e-05 2.09842e-05 -6.83019e-06 -69.7852 31.4514 -2.38419e-05 5.96046e-06 6.60881 -0.0158738 -11.4211 0.0062 0.0497 0.0339 0 0 0 0 0.0215 0 0 0 0 0 0.022 0 0 0 0 0 0.017 0 0 0 0 -0.0068 0.0873 0.0207 0 0 0 0 0.0267 0 0 0 0 0 0.0213 0 0 0 0 0 0.018 0 0 0 0 -0.0067 0.0922 0.0055 0 0 0 0 0.0266 0 0 0 0 0 0.0228 0 0 0 0 0 0.015 0 0 0 0 -0.0067 0.0925 -0.0113 0 0 0 0 0.0247 0 0 0 0 0 0.0221 0 0 0 0 0 0.018 0 0 0 0 -0.0066 0.0935 -0.0272 0 0 0 0 0.0163 0 0 0 0 0 0.0171 0 0 0 0 0 0.018 0 0 0 0 1.49012e-06 37.3278 -2.38419e-05 35.9188 -3.41509e-06 4.8053 -20.7107 -5.96046e-06 4.76837e-05 23.6158 21.8154 16.1279 -28.5381 -3.57628e-05 -9.53674e-05 -2.05304e-05 1.36604e-05 85.3548 -27.855 2.38419e-05 3.57628e-05 -7.89958 -0.0920932 15.7309 -0.0062 0.0497 0.0339 0 0 0 0 0.0215 0 0 0 0 0 0.022 0 0 0 0 0 0.017 0 0 0 0 0.0068 0.0873 0.0207 0 0 0 0 0.0267 0 0 0 0 0 0.0213 0 0 0 0 0 0.018 0 0 0 0 0.0067 0.0922 0.0055 0 0 0 0 0.0266 0 0 0 0 0 0.0228 0 0 0 0 0 0.015 0 0 0 0 0.0067 0.0925 -0.0113 0 0 0 0 0.0247 0 0 0 0 0 0.0221 0 0 0 0 0 0.018 0 0 0 0 0.0066 0.0935 -0.0272 0 0 0 0 0.0163 0 0 0 0 0 0.0171 0 0 0 0 0 0.018 0 0 0 0 1.49012e-06 37.3278 -2.38419e-05 -1.61608 12.388 0.346784 -7.45058e-06 18.7869 -4.76837e-05 9.8184e-06 -1.02453e-05 -8.53774e-07 
-35.0857 24.1874 -309.312 1.93562 -0.53749 8.3261 7.6681 -8.28467 1.68786 -0.0398718 6.72369 1.00482 2.98023e-06 -52.1032 4.76837e-05 -7.5527 -3.75925 -0.498064 -8.9407e-06 -38.4158 0 1.93999 -17.052 1.64026 -7.85186 -7.44819 2.05929 -5.00947 4.15386 1.50557 6.70552e-06 -49.8906 0 6.52152 1.13566 -0.129815 8.00937e-06 -40.7182 4.76837e-05 -5.35606 -12.3077 -4.17431 -1.49012e-06 6.30293 -6.30295 -0.056356 -3.70457 -0.178187 -2.23517e-06 37.3278 -2.38419e-05 -32.6881 1.36604e-05 -4.35 22.5802 -1.78814e-05 -2.38419e-05 11.5805 -44.4297 -3.70068 23.9196 -2.38419e-05 3.57628e-05 -5.58446e-06 3.4151e-06 -69.9508 31.3828 2.38419e-05 -5.96046e-06 6.28065 -0.00904171 -11.2787 0.0062 0.0497 0.0339 0 0 0 0 0.0215 0 0 0 0 0 0.022 0 0 0 0 0 0.017 0 0 0 0 -0.0068 0.0873 0.0207 0 0 0 0 0.0267 0 0 0 0 0 0.0213 0 0 0 0 0 0.018 0 0 0 0 -0.0067 0.0922 0.0055 0 0 0 0 0.0266 0 0 0 0 0 0.0228 0 0 0 0 0 0.015 0 0 0 0 -0.0067 0.0925 -0.0113 0 0 0 0 0.0247 0 0 0 0 0 0.0221 0 0 0 0 0 0.018 0 0 0 0 -0.0066 0.0935 -0.0272 0 0 0 0 0.0163 0 0 0 0 0 0.0171 0 0 0 0 0 0.018 0 0 0 0 -2.23517e-06 37.3278 -2.38419e-05 35.8544 -2.4546e-06 4.75067 -20.6796 1.19209e-05 -2.38419e-05 23.7336 21.829 16.2033 -28.4808 2.38419e-05 9.53674e-05 6.10594e-05 8.53773e-06 85.1588 -28.0299 0 0 -8.74178 -0.0977473 16.6189 -0.0062 0.0497 0.0339 0 0 0 0 0.0215 0 0 0 0 0 0.022 0 0 0 0 0 0.017 0 0 0 0 0.0068 0.0873 0.0207 0 0 0 0 0.0267 0 0 0 0 0 0.0213 0 0 0 0 0 0.018 0 0 0 0 0.0067 0.0922 0.0055 0 0 0 0 0.0266 0 0 0 0 0 0.0228 0 0 0 0 0 0.015 0 0 0 0 0.0067 0.0925 -0.0113 0 0 0 0 0.0247 0 0 0 0 0 0.0221 0 0 0 0 0 0.018 0 0 0 0 0.0066 0.0935 -0.0272 0 0 0 0 0.0163 0 0 0 0 0 0.0171 0 0 0 0 0 0.018 0 0 0 0 -2.23517e-06 37.3278 -2.38419e-05 -1.67446 12.238 0.355037 -5.21541e-06 18.815 2.38419e-05 9.92512e-06 -7.68396e-06 -8.53774e-07 
